<?xml version="1.0" encoding="UTF-8" standalone="no"?>
<!-- Created with Inkscape (http://www.inkscape.org/) -->

<svg
   width="420mm"
   height="594mm"
   viewBox="0 0 420 594"
   version="1.1"
   id="svg1"
   xml:space="preserve"
   inkscape:version="1.3.2 (091e20e, 2023-11-25, custom)"
   sodipodi:docname="large.svg"
   xmlns:inkscape="http://www.inkscape.org/namespaces/inkscape"
   xmlns:sodipodi="http://sodipodi.sourceforge.net/DTD/sodipodi-0.dtd"
   xmlns="http://www.w3.org/2000/svg"
   xmlns:svg="http://www.w3.org/2000/svg"><sodipodi:namedview
     id="namedview1"
     pagecolor="#ffffff"
     bordercolor="#000000"
     borderopacity="0.25"
     inkscape:showpageshadow="2"
     inkscape:pageopacity="0.0"
     inkscape:pagecheckerboard="0"
     inkscape:deskcolor="#d1d1d1"
     inkscape:document-units="mm"
     inkscape:zoom="0.51213161"
     inkscape:cx="626.79201"
     inkscape:cy="846.4621"
     inkscape:window-width="1920"
     inkscape:window-height="1009"
     inkscape:window-x="-8"
     inkscape:window-y="-8"
     inkscape:window-maximized="1"
     inkscape:current-layer="layer1" /><defs
     id="defs1" /><g
     inkscape:label="Layer 1"
     inkscape:groupmode="layer"
     id="layer1"><path
       style="fill:#000000"
       d="m 23.762939,400.90812 c -1.95908,-0.34204 -3.384757,-1.7901 -3.702333,-3.76046 -0.06269,-0.38896 -0.0672,-15.55797 -0.0555,-186.85933 l 0.01274,-186.435998 0.09098,-0.362533 c 0.146107,-0.582208 0.334645,-1.016213 0.645131,-1.48506 0.650653,-0.982515 1.589899,-1.630365 2.773634,-1.913129 L 23.911105,20 H 170.51144 317.11177 l 0.38351,0.09161 c 0.56795,0.135669 1.00757,0.319853 1.45613,0.610068 0.99527,0.643927 1.66236,1.591604 1.96264,2.788121 l 0.091,0.362533 0.0127,186.435998 c 0.0117,171.30136 0.007,186.47037 -0.0555,186.85933 -0.3205,1.98847 -1.75294,3.42952 -3.74155,3.76404 -0.36378,0.0612 -13.33087,0.0668 -146.74849,0.0632 -129.186395,-0.003 -146.391657,-0.0113 -146.709291,-0.0668 z m 293.763011,-0.55234 c 0.38571,-0.1099 0.95417,-0.36844 1.24415,-0.56585 0.29438,-0.20041 0.79729,-0.69524 1.01418,-0.99789 0.24437,-0.34101 0.50458,-0.90147 0.62094,-1.33747 l 0.0932,-0.34924 V 210.47883 23.852332 l -0.0932,-0.349242 c -0.11636,-0.435994 -0.37657,-0.99646 -0.62094,-1.337467 -0.21689,-0.302648 -0.7198,-0.797485 -1.01418,-0.99789 -0.30458,-0.207352 -0.87228,-0.461242 -1.26676,-0.566525 l -0.34924,-0.09321 H 170.51144 23.868772 l -0.349241,0.09321 c -0.394476,0.105283 -0.96218,0.359173 -1.266762,0.566525 -0.294376,0.200405 -0.797289,0.695242 -1.014175,0.99789 -0.244375,0.341007 -0.504582,0.901473 -0.620946,1.337467 l -0.09321,0.349242 v 186.626498 186.6265 l 0.09321,0.34924 c 0.116364,0.436 0.376571,0.99646 0.620946,1.33747 0.213383,0.29776 0.719329,0.79742 1.000345,0.98793 0.433638,0.29396 1.016647,0.534 1.516993,0.62456 0.276404,0.05 22.049327,0.0577 146.882508,0.0519 l 146.55799,-0.007 z M 24.524939,385.52716 V 374.5205 h 11.006666 11.006667 v 11.00666 11.00667 H 35.531605 24.524939 Z m 7.344833,5.50334 0.03139,-1.82034 h 1.815223 1.815222 v 1.82034 1.82033 h 1.8415 1.8415 v -1.82033 -1.82034 h 1.820333 1.820334 v -1.8415 -1.8415 H 41.03494 39.214607 v -1.81522 -1.81522 l 1.820333,-0.0314 1.820334,-0.0314 v -1.81023 -1.81023 l -1.830917,-0.0288 c -1.007004,-0.0158 -4.307417,-0.0228 -7.33425,-0.0156 l -5.503333,0.0132 -0.01319,5.50333 c -0.0073,3.02684 -2.46e-4,6.32725 0.01557,7.33425 l 0.02876,1.83092 h 1.810233 1.810233 z m 3.661833,-3.66184 v -1.8415 h 1.8415 1.8415 v 1.8415 1.8415 h -1.8415 -1.8415 z m 258.995325,-1.8415 V 374.5205 h 11.00667 11.00667 v 11.00666 11.00667 H 305.5336 294.52693 Z m 13.32442,7.33792 1.36525,-0.0279 v -1.8135 -1.81349 h 1.81534 1.81535 l 0.0289,-1.83091 c 0.0159,-1.00701 0.0229,-2.6596 0.0156,-3.67242 l -0.0133,-1.8415 -3.67241,-0.0108 -3.67242,-0.0108 v -1.8415 -1.8415 l -3.67242,0.0108 -3.67241,0.0108 -0.0133,1.8415 c -0.007,1.01282 -3.3e-4,2.66541 0.0156,3.67242 l 0.0289,1.83091 h 1.81535 1.81534 v 3.66139 3.66139 l 1.85208,0.0115 c 1.01865,0.006 2.06164,0.016 2.31775,0.0215 0.25612,0.006 1.08003,-0.003 1.83092,-0.0179 z m -1.37583,-3.68662 -0.94192,-0.0122 v -1.81952 -1.81953 h 1.82033 1.82034 l 7e-5,0.47625 c 4e-5,0.26194 0.0126,1.09062 0.028,1.8415 l 0.0279,1.36525 -0.90642,-0.01 c -0.49854,-0.005 -1.33029,-0.0152 -1.84834,-0.022 z M 50.559938,390.5225 v -4.99534 h 15.007167 15.007166 v -4.99533 -4.99533 H 95.581437 110.5886 v 4.99533 4.99533 h 14.986 14.986 v -4.99533 -4.99533 h 15.00717 15.00717 v 4.99533 4.99533 h 14.986 14.986 v -4.99533 -4.99533 h 15.00716 15.00717 v 4.99533 4.99533 h 14.986 14.986 v -4.99533 -4.99533 h 15.00716 15.00717 v 4.99533 4.99533 h -14.986 -14.986 v 4.99534 4.99533 h -15.00717 -15.00716 v -4.99533 -4.99534 H 215.5541 200.54694 v 4.99534 4.99533 H 185.53977 170.5326 v -4.99533 -4.99534 h -14.986 -14.986 v 4.99534 4.99533 h -15.00716 -15.00717 v -4.99533 -4.99534 h -14.985999 -14.986 v 4.99534 4.99533 H 65.567105 50.559938 Z m 2.370667,-20.08701 c -1.225537,-0.24686 -2.177906,-1.24287 -2.368131,-2.47666 -0.037,-0.23997 -0.04587,-38.73647 -0.03633,-157.64933 0.0121,-150.819781 0.01575,-157.34222 0.08812,-157.582745 0.317342,-1.054667 1.106578,-1.836741 2.147002,-2.12752 0.265606,-0.07423 4.357093,-0.0769 117.750164,-0.0769 113.39308,0 117.48456,0.0027 117.75017,0.0769 1.05132,0.293825 1.85806,1.101527 2.1478,2.15036 0.0713,0.258151 0.0747,7.405932 0.0747,157.750405 0,151.20259 -0.003,157.49097 -0.0758,157.75516 -0.28437,1.03244 -1.07513,1.83001 -2.12863,2.14701 -0.24047,0.0723 -5.13708,0.0758 -117.66242,0.0821 -96.617221,0.005 -117.460227,-0.003 -117.68666,-0.0488 z M 288.0879,369.92575 c 0.68573,-0.16165 1.33975,-0.69215 1.64729,-1.33619 0.0934,-0.19556 0.19055,-0.45651 0.21593,-0.5799 0.0657,-0.31946 0.0657,-314.699861 0,-315.019328 -0.14551,-0.70737 -0.69428,-1.403528 -1.35512,-1.719087 -0.19556,-0.09338 -0.45652,-0.190552 -0.5799,-0.215933 -0.31941,-0.0657 -234.689922,-0.0657 -235.009328,0 -0.706496,0.145332 -1.40052,0.692176 -1.722366,1.357109 -0.09519,0.196654 -0.192356,0.459271 -0.215934,0.583593 -0.05974,0.315 -0.05974,314.692966 0,315.007966 0.163225,0.86068 0.980367,1.70998 1.847102,1.91979 0.21358,0.0517 16.476213,0.0604 117.574696,0.0629 104.42174,0.003 117.35662,-0.004 117.59763,-0.0609 z M 25.540939,345.374 v -15.00717 h 4.995333 4.995333 V 315.402 300.43716 H 30.536272 25.540939 V 285.43 270.42283 h 4.995333 4.995333 V 255.458 240.49317 H 30.536272 25.540939 V 225.486 210.47883 h 4.995333 4.995333 V 195.514 180.54917 H 30.536272 25.540939 V 165.542 150.53483 h 4.995333 4.995333 V 135.57 120.60516 H 30.536272 25.540939 V 105.598 90.590831 h 4.995333 4.995333 V 75.625998 60.661165 h 4.995333 4.995334 v 15.007166 15.007167 h -4.995334 -4.995333 v 14.964832 14.96483 h 4.995333 4.995334 v 15.00717 15.00717 h -4.995334 -4.995333 v 14.96483 14.96484 h 4.995333 4.995334 v 15.00716 15.00717 h -4.995334 -4.995333 v 14.96483 14.96484 h 4.995333 4.995334 v 15.00716 15.00717 h -4.995334 -4.995333 v 14.96483 14.96483 h 4.995333 4.995334 v 15.00717 15.00717 h -4.995334 -4.995333 v 14.96483 14.96483 h -4.995333 -4.995333 z m 270.001991,0 v -15.00717 h 4.99534 4.99533 V 315.402 300.43716 h -4.99533 -4.99534 V 285.43 270.42283 h 4.99534 4.99533 V 255.458 240.49317 h -4.99533 -4.99534 V 225.486 210.47883 h 4.99534 4.99533 V 195.514 180.54917 h -4.99533 -4.99534 V 165.542 150.53483 h 4.99534 4.99533 V 135.57 120.60516 h -4.99533 -4.99534 V 105.598 90.590831 h 4.99534 4.99533 V 75.625998 60.661165 h 4.99533 4.99534 v 15.007166 15.007167 h -4.99534 -4.99533 v 14.964832 14.96483 h 4.99533 4.99534 v 15.00717 15.00717 h -4.99534 -4.99533 v 14.96483 14.96484 h 4.99533 4.99534 v 15.00716 15.00717 h -4.99534 -4.99533 v 14.96483 14.96484 h 4.99533 4.99534 v 15.00716 15.00717 h -4.99534 -4.99533 v 14.96483 14.96483 h 4.99533 4.99534 v 15.00717 15.00717 h -4.99534 -4.99533 v 14.96483 14.96483 h -4.99533 -4.99534 z M 24.524939,35.515165 V 24.508499 H 35.531605 46.538272 V 35.515165 46.521832 H 35.531605 24.524939 Z m 17.430749,7.330619 0.899584,-0.007 v -1.815223 -1.815222 l -1.820334,-0.03139 -1.820333,-0.03139 v -1.815222 -1.815223 h 1.815343 1.815344 l 0.02891,-1.830917 c 0.0159,-1.007004 0.02291,-2.659591 0.01557,-3.672416 l -0.01334,-1.8415 h -1.8415 -1.8415 l 0.0062,3.672417 0.0062,3.672416 h -1.837149 -1.837149 v 1.8415 1.8415 h -1.8415 -1.8415 v -1.8415 -1.8415 h -1.820333 -1.820333 v 1.8415 1.8415 h 1.820333 1.820333 v 1.819888 1.819889 l 1.852083,0.01103 c 1.886309,0.01123 6.626014,0.0094 8.255,-0.0032 z M 294.52693,35.515165 V 24.508499 h 11.00667 11.00667 V 35.515165 46.521832 H 305.5336 294.52693 Z m 18.34912,5.49275 c 0.0158,-1.007004 0.0228,-4.307417 0.0156,-7.33425 l -0.0132,-5.503333 h -7.34483 -7.34483 l -0.0132,3.683 c -0.007,2.02565 -2.7e-4,4.506912 0.0156,5.513916 l 0.0288,1.830917 h 1.80851 1.8085 l 0.0279,-1.36525 c 0.0154,-0.750887 0.028,-2.398712 0.028,-3.661833 l 7e-5,-2.296583 0.89959,-0.0069 c 0.49477,-0.0038 2.13307,-0.01006 3.64066,-0.01399 l 2.74109,-0.0071 7e-5,4.130909 c 4e-5,2.272 0.0126,4.745271 0.028,5.496159 l 0.0279,1.36525 h 1.8085 1.80851 z M 50.559938,40.510498 V 35.515165 H 65.567105 80.574271 V 30.519832 25.524499 H 95.581437 110.5886 v 4.995333 4.995333 h 14.986 14.986 v -4.995333 -4.995333 h 15.00717 15.00717 v 4.995333 4.995333 h 14.986 14.986 v -4.995333 -4.995333 h 15.00716 15.00717 v 4.995333 4.995333 h 14.986 14.986 v -4.995333 -4.995333 h 15.00716 15.00717 v 4.995333 4.995333 h -14.986 -14.986 v 4.995333 4.995334 H 245.56843 230.56127 V 40.510498 35.515165 H 215.5541 200.54694 v 4.995333 4.995334 H 185.53977 170.5326 v -4.995334 -4.995333 h -14.986 -14.986 v 4.995333 4.995334 h -15.00716 -15.00717 v -4.995334 -4.995333 h -14.985999 -14.986 v 4.995333 4.995334 H 65.567105 50.559938 Z"
       id="path1" /></g></svg>
