<?xml version="1.0" encoding="UTF-8" standalone="no"?>
<!-- Created with Inkscape (http://www.inkscape.org/) -->

<svg
   width="297mm"
   height="420mm"
   viewBox="0 0 297 420"
   version="1.1"
   id="svg1"
   xml:space="preserve"
   inkscape:version="1.3.2 (091e20e, 2023-11-25, custom)"
   sodipodi:docname="medium.svg"
   xmlns:inkscape="http://www.inkscape.org/namespaces/inkscape"
   xmlns:sodipodi="http://sodipodi.sourceforge.net/DTD/sodipodi-0.dtd"
   xmlns="http://www.w3.org/2000/svg"
   xmlns:svg="http://www.w3.org/2000/svg"><sodipodi:namedview
     id="namedview1"
     pagecolor="#ffffff"
     bordercolor="#000000"
     borderopacity="0.25"
     inkscape:showpageshadow="2"
     inkscape:pageopacity="0.0"
     inkscape:pagecheckerboard="0"
     inkscape:deskcolor="#d1d1d1"
     inkscape:document-units="mm"
     inkscape:zoom="0.51213161"
     inkscape:cx="478.39265"
     inkscape:cy="721.49423"
     inkscape:window-width="1920"
     inkscape:window-height="1009"
     inkscape:window-x="-8"
     inkscape:window-y="-8"
     inkscape:window-maximized="1"
     inkscape:current-layer="layer1" /><defs
     id="defs1" /><g
     inkscape:label="Layer 1"
     inkscape:groupmode="layer"
     id="layer1"><path
       style="fill:#000000"
       d="m 22.815165,340.9097 c -0.609507,-0.13021 -1.093661,-0.35765 -1.575421,-0.74007 -0.499213,-0.39627 -0.960821,-1.13944 -1.145464,-1.84414 L 20,337.96565 V 180.48566 23.005665 l 0.09482,-0.359834 c 0.335363,-1.272645 1.278366,-2.215649 2.551012,-2.551011 L 23.005665,20 h 117.474995 117.475 l 0.35983,0.09428 c 0.44424,0.116397 1.03585,0.41133 1.38583,0.690872 0.52248,0.417321 0.97809,1.144552 1.16573,1.860679 l 0.0943,0.359834 V 180.48566 337.96565 l -0.0943,0.35984 c -0.18764,0.71612 -0.64325,1.44336 -1.16573,1.86068 -0.33692,0.26911 -0.93074,0.56966 -1.36466,0.69069 l -0.33867,0.0945 -117.41149,0.008 c -113.299659,0.007 -117.424103,0.005 -117.771335,-0.0693 z m 235.563825,-0.56171 c 0.48343,-0.16463 0.84149,-0.38811 1.2062,-0.75281 0.3647,-0.3647 0.58817,-0.72277 0.7528,-1.20619 l 0.11534,-0.33867 V 180.48566 22.920998 l -0.11534,-0.338667 c -0.16463,-0.483426 -0.3881,-0.841488 -0.7528,-1.206191 -0.36471,-0.364703 -0.72277,-0.588177 -1.2062,-0.752809 l -0.33866,-0.115333 H 140.48066 22.920998 l -0.338666,0.115333 c -0.483427,0.164632 -0.841489,0.388106 -1.206192,0.752809 -0.364703,0.364703 -0.588177,0.722765 -0.752808,1.206191 l -0.115334,0.338667 V 180.48566 338.05032 l 0.115334,0.33867 c 0.357554,1.04992 1.18638,1.79696 2.255333,2.03278 0.210441,0.0464 20.396297,0.0548 117.707835,0.0488 l 117.45383,-0.007 z M 24.466165,325.54082 v -11.00667 h 11.006667 11.006666 v 11.00667 11.00667 H 35.472832 24.466165 Z m 13.790083,7.33057 0.899583,-0.007 v -1.82034 -1.82033 h 1.820334 1.820333 v -1.8415 -1.8415 h -1.820333 -1.820334 v 1.83454 1.83454 l -2.76225,-0.007 c -1.519237,-0.004 -3.167062,-0.0105 -3.661833,-0.0142 l -0.899583,-0.007 v -1.82034 -1.82033 h 1.820333 1.820334 v -3.68345 -3.68345 l -1.830917,0.011 -1.830917,0.011 -0.01082,3.67241 -0.01082,3.67242 h -1.841266 -1.841266 l 7.1e-5,2.29658 c 3.9e-5,1.26313 0.01264,2.91075 0.028,3.66139 l 0.02793,1.36481 1.824084,0.011 c 1.852926,0.0112 6.631078,0.009 8.269334,-0.003 z m 4.54025,-12.8339 v -1.82034 h -1.820333 -1.820334 v 1.82034 1.82033 h 1.820334 1.820333 z m 191.685332,5.50333 v -11.00667 h 11.00667 11.00666 v 11.00667 11.00667 H 245.4885 234.48183 Z m 9.64142,7.33792 1.36525,-0.0279 v -3.65499 -3.65499 h -1.82034 -1.82033 v -1.84018 -1.84018 l 3.6356,0.008 3.63559,0.008 0.0312,1.83197 0.0312,1.83197 h 1.81036 1.81035 l 0.0289,-1.83092 c 0.0159,-1.007 0.0229,-2.65959 0.0156,-3.67241 l -0.0133,-1.8415 -2.77283,-7e-4 c -1.52506,-3.9e-4 -4.00633,0.007 -5.51392,0.0175 l -2.74108,0.0182 v 1.81294 1.81293 l -1.83092,0.011 -1.83092,0.011 -0.0132,3.66183 c -0.007,2.01401 -2.7e-4,4.48555 0.0156,5.49231 l 0.0288,1.83047 1.82594,0.0115 c 1.00426,0.006 2.03548,0.016 2.2916,0.0215 0.25612,0.006 1.08003,-0.003 1.83092,-0.0179 z m 8.68891,-1.83459 v -1.82033 h -1.82033 -1.82033 v 1.82033 1.82034 h 1.82033 1.82033 z m -172.296661,-0.508 v -4.99533 H 65.508329 50.501165 v -4.99533 -4.99534 h 15.007164 15.00717 v 4.99534 4.99533 h 15.00716 15.007171 v -4.99533 -4.99534 h 15.00717 15.00716 v 4.99534 4.99533 h 14.986 14.986 v -4.99533 -4.99534 h 15.00717 15.00717 v 4.99534 4.99533 h 14.986 14.986 v 4.99533 4.99534 h -15.00717 -15.00717 v -4.99534 -4.99533 h -14.986 -14.986 v 4.99533 4.99534 H 155.509 140.50183 v -4.99534 -4.99533 h -14.986 -14.986 v 4.99533 4.99534 H 95.522659 80.515499 Z M 51.987261,310.44549 c -0.716335,-0.19263 -1.310779,-0.8255 -1.44354,-1.53686 -0.05916,-0.317 -0.05916,-256.48661 0,-256.803605 0.140345,-0.751993 0.809312,-1.42096 1.561305,-1.561304 0.316885,-0.05914 176.476724,-0.05914 176.793604,0 0.752,0.140344 1.42096,0.809311 1.56131,1.561304 0.0592,0.316995 0.0592,256.486605 0,256.803605 -0.13456,0.72098 -0.73062,1.34853 -1.46176,1.53896 -0.22347,0.0582 -9.34505,0.0646 -88.51583,0.0621 -76.99237,-0.002 -88.29586,-0.0106 -88.495089,-0.0642 z m 177.169069,-0.58256 c 0.28481,-0.14207 0.59173,-0.45468 0.72309,-0.73648 l 0.0939,-0.20146 V 180.50682 52.088664 l -0.10051,-0.202355 c -0.14854,-0.299054 -0.43042,-0.589001 -0.71038,-0.730722 l -0.24744,-0.125256 H 140.50183 52.088665 l -0.247442,0.125256 c -0.279965,0.141721 -0.561842,0.431668 -0.710382,0.730722 l -0.10051,0.202355 V 180.50682 308.92499 l 0.119208,0.23283 c 0.20244,0.3954 0.534871,0.67463 0.960292,0.8066 0.05821,0.0181 39.863178,0.0297 88.455499,0.0259 l 88.34967,-0.007 z M 35.472832,285.42999 v -15.00717 h -4.995334 -4.995333 v -15.00716 -15.00717 h 4.995333 4.995334 v -14.9225 -14.9225 h -4.995334 -4.995333 v -15.00717 -15.00716 h 4.995333 4.995334 v -15.00717 -15.00717 h -4.995334 -4.995333 v -15.00716 -15.00717 h 4.995333 4.995334 V 105.5345 90.548497 H 30.477498 25.482165 V 75.54133 60.534164 h 4.995333 4.995334 V 75.54133 90.548497 h 4.995333 4.995333 v 15.007173 15.00716 h -4.995333 -4.995333 v 14.98599 14.986 h 4.995333 4.995333 v 15.00717 15.00717 h -4.995333 -4.995333 v 14.94366 14.94367 h 4.995333 4.995333 v 15.00717 15.00716 h -4.995333 -4.995333 v 14.986 14.986 h 4.995333 4.995333 v 15.00717 15.00716 h -4.995333 -4.995333 z m 210.015668,0 v -15.00717 h -4.99534 -4.99533 v -15.00716 -15.00717 h 4.99533 4.99534 v -14.9225 -14.9225 h -4.99534 -4.99533 v -15.00717 -15.00716 h 4.99533 4.99534 v -15.00717 -15.00717 h -4.99534 -4.99533 v -15.00716 -15.00717 h 4.99533 4.99534 V 105.5345 90.548497 h -4.99534 -4.99533 V 75.54133 60.534164 h 4.99533 4.99534 V 75.54133 90.548497 h 4.99533 4.99533 v 15.007173 15.00716 h -4.99533 -4.99533 v 14.98599 14.986 h 4.99533 4.99533 v 15.00717 15.00717 h -4.99533 -4.99533 v 14.94366 14.94367 h 4.99533 4.99533 v 15.00717 15.00716 h -4.99533 -4.99533 v 14.986 14.986 h 4.99533 4.99533 v 15.00717 15.00716 h -4.99533 -4.99533 z M 24.466165,35.515164 V 24.508498 H 35.472832 46.479498 V 35.515164 46.521831 H 35.472832 24.466165 Z m 14.689666,5.503334 v -1.820334 h 1.820334 1.820333 v -1.8415 -1.8415 h -3.661833 -3.661833 v -3.683 -3.683 H 34.54848 c -0.508393,0 -2.156218,0.01265 -3.661833,0.02811 l -2.737482,0.02811 v 1.813386 1.813385 h 1.820333 1.820334 v 1.8415 1.8415 h -1.820334 -1.820333 v 1.8415 1.8415 h 3.661833 3.661834 v 1.820334 1.820333 h 1.841499 1.8415 z M 234.48183,35.515164 V 24.508498 h 11.00667 11.00666 V 35.515164 46.521831 H 245.4885 234.48183 Z m 13.79008,7.330569 0.89959,-0.0069 V 37.3355 31.832166 h 1.82033 1.82033 V 30.011833 28.1915 h -1.82033 -1.82033 v 1.820333 1.820333 h -3.66139 -3.66138 l -0.011,-1.830916 -0.011,-1.830917 h -1.8415 -1.8415 l -0.0133,1.8415 c -0.007,1.012825 -3.2e-4,2.665413 0.0156,3.672417 l 0.0289,1.830916 h 3.65684 3.65685 v 1.845932 1.845932 l -1.83092,-0.01501 c -1.00701,-0.0083 -2.65483,-0.01025 -3.66183,-0.0044 l -1.83092,0.01058 v 1.819884 1.819883 l 1.83092,0.01103 c 1.85962,0.01121 6.63748,0.0093 8.27616,-0.0032 z M 80.515499,40.510498 V 35.515164 H 65.508329 50.501165 v -4.995333 -4.995333 h 15.007164 15.00717 v 4.995333 4.995333 h 15.00716 15.007171 v -4.995333 -4.995333 h 15.00717 15.00716 v 4.995333 4.995333 h 14.986 14.986 v -4.995333 -4.995333 h 15.00717 15.00717 v 4.995333 4.995333 h 14.986 14.986 v 4.995334 4.995333 h -15.00717 -15.00717 v -4.995333 -4.995334 h -14.986 -14.986 v 4.995334 4.995333 H 155.509 140.50183 v -4.995333 -4.995334 h -14.986 -14.986 v 4.995334 4.995333 H 95.522659 80.515499 Z"
       id="path1" /></g></svg>
