<?xml version="1.0" encoding="UTF-8" standalone="no"?>
<!-- Created with Inkscape (http://www.inkscape.org/) -->

<svg
   width="210mm"
   height="297mm"
   viewBox="0 0 210 297"
   version="1.1"
   id="svg1"
   xml:space="preserve"
   inkscape:version="1.3.2 (091e20e, 2023-11-25, custom)"
   sodipodi:docname="small.svg"
   xmlns:inkscape="http://www.inkscape.org/namespaces/inkscape"
   xmlns:sodipodi="http://sodipodi.sourceforge.net/DTD/sodipodi-0.dtd"
   xmlns="http://www.w3.org/2000/svg"
   xmlns:svg="http://www.w3.org/2000/svg"><sodipodi:namedview
     id="namedview1"
     pagecolor="#ffffff"
     bordercolor="#000000"
     borderopacity="0.25"
     inkscape:showpageshadow="2"
     inkscape:pageopacity="0.0"
     inkscape:pagecheckerboard="0"
     inkscape:deskcolor="#d1d1d1"
     inkscape:document-units="mm"
     inkscape:zoom="0.51213161"
     inkscape:cx="615.07627"
     inkscape:cy="573.09487"
     inkscape:window-width="1920"
     inkscape:window-height="1009"
     inkscape:window-x="-8"
     inkscape:window-y="-8"
     inkscape:window-maximized="1"
     inkscape:current-layer="layer1" /><defs
     id="defs1" /><g
     inkscape:label="Layer 1"
     inkscape:groupmode="layer"
     id="layer1"><path
       style="fill:#000000"
       d="m 21.883833,270.92796 c -0.854176,-0.22309 -1.484504,-0.80331 -1.767481,-1.62696 L 20,268.96233 V 145.51833 22.074333 l 0.09921,-0.3175 c 0.247747,-0.792869 0.817617,-1.376118 1.608294,-1.646051 L 22.032002,20 h 83.460158 83.46017 l 0.33866,0.116352 c 0.83173,0.285749 1.40804,0.917126 1.62917,1.784836 l 0.0853,0.334855 V 145.49716 268.75829 l -0.0853,0.33485 c -0.22113,0.86771 -0.79744,1.49909 -1.62917,1.78484 l -0.33866,0.11635 -83.3755,0.008 c -82.668865,0.008 -83.378186,0.008 -83.692995,-0.0746 z m 167.102647,-0.48361 c 0.3679,-0.0958 0.65571,-0.26011 0.92173,-0.52613 0.26603,-0.26603 0.43031,-0.55384 0.52614,-0.92174 0.0559,-0.21463 0.0631,-14.38021 0.0631,-123.49932 0,-109.119098 -0.007,-123.28468 -0.0631,-123.499311 -0.0958,-0.367905 -0.26011,-0.655712 -0.52614,-0.921736 -0.26602,-0.266023 -0.55383,-0.430305 -0.92173,-0.526132 -0.2145,-0.05587 -9.8359,-0.06315 -83.49432,-0.06315 -73.658412,0 -83.279809,0.0073 -83.494311,0.06315 -0.367906,0.09583 -0.655713,0.260109 -0.921736,0.526132 -0.266023,0.266024 -0.430306,0.553831 -0.526133,0.921736 -0.0559,0.214631 -0.06315,14.380213 -0.06315,123.499311 0,109.11911 0.0072,123.28469 0.06315,123.49932 0.185648,0.71275 0.722053,1.25517 1.429719,1.44575 0.190348,0.0513 11.976388,0.0601 83.492981,0.0625 73.68173,0.002 83.29928,-0.004 83.5138,-0.0604 z M 22.4765,260.4745 v -8.001 h 8.000999 8.001 v 8.001 8.001 h -8.001 -8.000999 z m 10.667999,4.0005 v -1.3335 h 1.3335 1.3335 v -4.0005 -4.0005 h -2.667 -2.667 v 1.3335 1.3335 h -1.3335 -1.3335 v -1.3335 -1.3335 h -1.3335 -1.3335 v 1.3335 1.3335 h 1.3335 1.3335 v 1.3335 1.3335 h 1.3335 1.3335 v 2.667 2.667 h 1.3335 1.3335 z m -2.667,-5.334 v -1.3335 h 1.3335 1.3335 v 1.3335 1.3335 h -1.3335 -1.3335 z m 35.052003,5.334 v -4.0005 h -9.99067 -9.990666 v -4.0005 -4.0005 h 9.990666 9.99067 v 4.0005 4.0005 h 9.99066 9.99067 v -4.0005 -4.0005 h 9.99067 9.990658 v 4.0005 4.0005 h 9.99067 9.99066 v -4.0005 -4.0005 h 9.99067 9.99067 v 4.0005 4.0005 h 9.99066 9.99067 v 4.0005 4.0005 h -9.99067 -9.99066 v -4.0005 -4.0005 h -9.99067 -9.99067 v 4.0005 4.0005 h -9.99066 -9.99067 v -4.0005 -4.0005 h -9.990658 -9.99067 v 4.0005 4.0005 h -9.99067 -9.99066 z m 106.976328,-4.0005 v -8.001 h 8.001 8.001 v 8.001 8.001 h -8.001 -8.001 z m 5.334,2.667 v -2.667 h 2.667 2.667 v 1.3335 1.3335 h -1.3335 -1.3335 v 1.3335 1.3335 h 1.3335 1.3335 v -1.3335 -1.3335 h 1.3335 1.3335 v -2.667 -2.667 h -5.334 -5.334 v 4.0005 4.0005 h 1.3335 1.3335 z M 41.080269,250.42597 c -0.247111,-0.11507 -0.406184,-0.28704 -0.502945,-0.54372 -0.063,-0.1671 -0.06755,-8.4969 -0.05706,-104.42742 l 0.0114,-104.245831 0.09113,-0.169333 c 0.117094,-0.217577 0.243387,-0.333505 0.48037,-0.440943 l 0.1905,-0.08636 h 64.219666 64.21966 l 0.1905,0.08636 c 0.23699,0.107438 0.36328,0.223366 0.48037,0.440943 l 0.0911,0.169333 V 145.51833 249.82766 l -0.0911,0.16934 c -0.11709,0.21757 -0.24338,0.3335 -0.48037,0.44094 l -0.1905,0.0864 -64.21966,5.2e-4 -64.219666,5.2e-4 z m 128.783961,-0.55174 0.14393,-0.14393 V 145.51833 41.306366 l -0.14393,-0.143933 -0.14394,-0.143934 H 105.51333 41.306366 l -0.143934,0.143934 -0.143933,0.143933 V 145.51833 249.7303 l 0.143933,0.14393 0.143934,0.14393 h 64.206964 64.20696 z M 22.4765,235.41316 v -9.99066 h 4.000499 4.0005 v -9.99067 -9.99067 h -4.0005 -4.000499 v -9.99066 -9.99067 h 4.000499 4.0005 v -9.99067 -9.99066 h -4.0005 -4.000499 v -9.99067 -9.99067 h 4.000499 4.0005 v -9.99066 -9.99067 h -4.0005 -4.000499 v -9.99066 -9.99067 h 4.000499 4.0005 v -9.990671 -9.99066 h -4.0005 -4.000499 v -9.99067 -9.990667 h 4.000499 4.0005 v -9.990666 -9.990667 h 4.0005 4.0005 v 9.990667 9.990666 h -4.0005 -4.0005 v 9.990667 9.99067 h 4.0005 4.0005 v 9.99066 9.990671 h -4.0005 -4.0005 v 9.99067 9.99066 h 4.0005 4.0005 v 9.99067 9.99066 h -4.0005 -4.0005 v 9.99067 9.99067 h 4.0005 4.0005 v 9.99066 9.99067 h -4.0005 -4.0005 v 9.99067 9.99066 h 4.0005 4.0005 v 9.99067 9.99067 h -4.0005 -4.0005 v 9.99066 9.99067 h -4.0005 -4.000499 z m 150.02933,0 v -9.99066 h 4.0005 4.0005 v -9.99067 -9.99067 h -4.0005 -4.0005 v -9.99066 -9.99067 h 4.0005 4.0005 v -9.99067 -9.99066 h -4.0005 -4.0005 v -9.99067 -9.99067 h 4.0005 4.0005 v -9.99066 -9.99067 h -4.0005 -4.0005 v -9.99066 -9.99067 h 4.0005 4.0005 v -9.990671 -9.99066 h -4.0005 -4.0005 v -9.99067 -9.990667 h 4.0005 4.0005 v -9.990666 -9.990667 h 4.0005 4.0005 v 9.990667 9.990666 h -4.0005 -4.0005 v 9.990667 9.99067 h 4.0005 4.0005 v 9.99066 9.990671 h -4.0005 -4.0005 v 9.99067 9.99066 h 4.0005 4.0005 v 9.99067 9.99066 h -4.0005 -4.0005 v 9.99067 9.99067 h 4.0005 4.0005 v 9.99066 9.99067 h -4.0005 -4.0005 v 9.99067 9.99066 h 4.0005 4.0005 v 9.99067 9.99067 h -4.0005 -4.0005 v 9.99066 9.99067 h -4.0005 -4.0005 z M 22.4765,30.519833 v -8.001 h 8.000999 8.001 v 8.001 8.001 h -8.001 -8.000999 z m 10.667999,4.0005 v -1.3335 h -1.3335 -1.3335 v -1.3335 -1.3335 h -1.3335 -1.3335 v -2.667 -2.667 h -1.3335 -1.3335 v 2.667 2.667 h 1.3335 1.3335 v 2.667 2.667 h 2.667 2.667 z m 2.667,-6.6675 v -2.667 h -1.3335 -1.3335 v 2.667 2.667 h 1.3335 1.3335 z m 29.718003,6.6675 v -4.0005 h -9.99067 -9.990666 v -4.0005 -4.0005 h 9.990666 9.99067 v 4.0005 4.0005 h 9.99066 9.99067 v -4.0005 -4.0005 h 9.99067 9.990658 v 4.0005 4.0005 h 9.99067 9.99066 v -4.0005 -4.0005 h 9.99067 9.99067 v 4.0005 4.0005 h 9.99066 9.99067 v 4.0005 4.0005 h -9.99067 -9.99066 v -4.0005 -4.0005 h -9.99067 -9.99067 v 4.0005 4.0005 h -9.99066 -9.99067 v -4.0005 -4.0005 h -9.990658 -9.99067 v 4.0005 4.0005 h -9.99067 -9.99066 z m 106.976328,-4.0005 v -8.001 h 8.001 8.001 v 8.001 8.001 h -8.001 -8.001 z m 8.001,4.0005 v -1.3335 h 1.3335 1.3335 v 1.3335 1.3335 h 1.3335 1.3335 v -1.3335 -1.3335 h -1.3335 -1.3335 v -1.3335 -1.3335 h 1.3335 1.3335 v -2.667 -2.667 h -2.667 -2.667 v 4.0005 4.0005 h -2.667 -2.667 v 1.3335 1.3335 h 2.667 2.667 z"
       id="path1" /></g></svg>
